<svg width="210mm" height="297mm" version="1.1" viewBox="0 0 210 297" xmlns="http://www.w3.org/2000/svg">
 <g transform="translate(208.11 34.441)">
  <path d="m-52.69 132.82s-9.5067-4.5362-14.64-5.3008c-4.8333-.71987-9.8492-.20476-14.64.75725-3.4182.68637-9.8443 3.5338-9.8443 3.5338s-2.9494-24.762 0-36.6c1.4741-5.9167 3.9953-12.137 8.5822-16.155 2.9039-2.5435 7.0106-3.6763 10.854-4.0387 4.5032-.42458 9.4153.0909 13.378 2.2718 3.9669 2.1831 7.5946 5.8218 9.087 10.097 5.0012 14.325-2.7766 45.435-2.7766 45.435z" fill="#e5e5e5" stroke="#000" stroke-width=".26458px"/>
  <path d="m-69.428 127.25-4.9964-.0155c-2.2638-.007-1.1556-7.8474-1.3006-9.9785-.26326-3.8697 1.6512-7.9136 4.356-10.693 2.2831-2.3464 4.9997-3.8254 8.2666-4.0387 2.6551-.17336 7.3242.77816 9.53 2.266 2.0347 1.3724 4.3073 2.945 4.5106 5.4959.51749 6.4915-3.836 22.91-3.5654 23.033-6.21-2.9122-11.459-5.4732-16.801-6.0688z" fill="#151515"/>
  <ellipse cx="-69.203" cy="107.42" rx="2.0676" ry="2.1055" fill="#fff" fill-rule="evenodd" stroke-opacity="0"/>
 </g>
 <g transform="translate(6.4255 .71394)">
  <path d="m46.95 166.85s9.5067-4.5362 14.64-5.3008c4.8333-.71987 9.8492-.20476 14.64.75725 3.4182.68637 9.8443 3.5338 9.8443 3.5338s2.9494-24.762 0-36.6c-1.4741-5.9167-3.9953-12.137-8.5822-16.155-2.9039-2.5435-7.0106-3.6763-10.854-4.0387-4.5032-.42458-9.4153.0909-13.378 2.2718-3.9669 2.1831-7.5946 5.8218-9.087 10.097-5.0012 14.325 2.7766 45.435 2.7766 45.435z" fill="#e6e6e6" stroke="#000" stroke-width=".26458px"/>
  <path d="m69.147 161.22s-2.5238.62776-3.9236-1.1514c-1.3998-1.7791-1.408-6.1436-1.553-8.2747-.26326-3.8697 1.0201-9.4281 3.725-12.208 2.2831-2.3464 5.5677-4.0778 8.8346-4.2911 2.6551-.17336 6.3083-.40908 8.3311 1.3194 1.9455 1.6624 2.4773 1.8722 2.6806 4.4231.51749 6.4915-1.438 24.677-1.1674 24.8-6.21-2.9122-11.586-4.0218-16.927-4.6174z" fill="#151515"/>
  <ellipse cx="69.561" cy="140.44" rx="2.0676" ry="2.1055" fill="#fff" fill-rule="evenodd" stroke-opacity="0"/>
 </g>
</svg>
