<svg width="210mm" height="297mm" version="1.1" viewBox="0 0 210 297" xmlns="http://www.w3.org/2000/svg">
 <path d="m9.6534 111.26c-.25331-.11098-6.4917-16.626-.85439-21.928l-3.8261.90667c.75035-5.9528-1.4714-9.516 1.7844-14.389l-5.9414 1.6766s.02573-24.086 16.501-28.882l-5.1823-2.0623c-1.4822-.44209 25.211-16.151 33.471-13.815l-3.4845-3.5963s26.635-2.4255 33.04 6.5287l.83367-4.3216c5.7459 3.8204 13.784 10.259 18.33 15.167 3.8846 4.194 7.8626 15.241 7.8626 15.241s-14.695-1.2635-22.027-.79655c-8.9845.57222-18.176 1.3491-26.649 4.3923-7.7649 2.7889-15.056 7.161-21.402 12.433-5.6633 4.7052-10.384 10.577-14.408 16.743-3.3013 5.0585-8.0488 16.702-8.0488 16.702z" fill="#878d99" stroke="#000" stroke-width=".765"/>
 <path d="m200.55 111.29c.25332-.11098 6.4917-16.626.85439-21.928l3.8261.90667c-.75035-5.9528 1.4714-9.516-1.7844-14.389l5.9414 1.6766s-.0257-24.086-16.501-28.882l5.1823-2.0623c1.4822-.44209-25.211-16.151-33.471-13.815l3.4845-3.5963s-26.635-2.4255-33.04 6.5287l-.83367-4.3216c-5.7459 3.8204-13.784 10.259-18.33 15.167-3.8846 4.194-7.8626 15.241-7.8626 15.241s14.695-1.2635 22.027-.79655c8.9845.57222 18.176 1.3491 26.649 4.3923 7.7649 2.7889 15.056 7.161 21.402 12.433 5.6633 4.7052 10.384 10.577 14.408 16.743 3.3013 5.0585 8.0488 16.702 8.0488 16.702z" fill="#878d99" stroke="#000" stroke-width=".765"/>
</svg>
