<svg width="210mm" height="297mm" version="1.1" viewBox="0 0 210 297" xmlns="http://www.w3.org/2000/svg">
 <g transform="translate(-5.7115 3.2127)">
  <g fill="none" stroke="#000" stroke-width="2.265">
   <path d="m62.347 213.8 14.893-5.3008"/>
   <path d="m69.288 211.53s13.582 7.0625 20.951 8.8346c8.9817 2.1599 18.419 2.5752 27.64 2.0193 6.1191-.3689 12.254-1.5319 18.048-3.5338 6.3841-2.2059 18.048-9.2132 18.048-9.2132"/>
   <path d="m146.15 205.85 14.135 6.9415"/>
  </g>
  <path d="m89.103 200.17s4.1588 3.3336 6.5628 4.4173c2.893 1.3042 6.0655 1.995 9.2132 2.398 3.6304.46471 7.3403.38393 10.98 0 3.2084-.33842 6.4738-.81206 9.4656-2.0193 2.4357-.98288 6.689-4.1649 6.689-4.1649s.0497-20.658-3.1552-30.29c-1.2688-3.8131-2.8604-8.0903-6.1842-10.349-3.2434-2.2042-7.6898-1.927-11.611-1.8931-4.0185.0347-8.4257.0645-11.864 2.1455-3.6931 2.2356-6.403 6.193-7.9511 10.223-3.5396 9.2137-2.1455 29.533-2.1455 29.533z" fill="#1c1c1c" stroke="#000" stroke-width=".26458px"/>
  <ellipse cx="104" cy="166.22" rx="2.5242" ry="3.4076" fill="#e2e2e2" fill-rule="evenodd" stroke-opacity="0"/>
 </g>
</svg>
