<svg width="210mm" height="297mm" version="1.1" viewBox="0 0 210 297" xmlns="http://www.w3.org/2000/svg">
 <g transform="translate(-12.137 6.4255)" stroke="#000" stroke-width=".965">
  <path d="m169.12 95.918s-22.559 9.1612-34.329 12.116c-10.734 2.6947-21.769 5.7341-32.814 5.0483-14.142-.87807-28.538-4.6716-40.892-11.611-10.797-6.0652-20.155-15.099-27.261-25.242-3.9814-5.6822-8.1176-12.246-8.0773-19.184.02449-4.2203 1.9485-8.7471 5.0483-11.611 4.1823-3.8642 10.526-4.6951 16.155-5.5532 5.8248-.88788 17.669.50483 17.669.50483s4.2422-12.519 7.5725-18.174c5.2277-8.8772 10.862-16.784 19.898-21.733 10.236-5.6068 22.454-5.6729 34.12-6.0326 12.793-.39447 25.907-1.4125 38.367 1.5145 8.799 2.067 18.214 4.8496 24.737 11.106 6.2457 5.9909 9.1187 14.935 11.611 23.222 4.833 16.07 4.437 26.46 3.2022 43.196-.65481 8.8755-.64729 17.747-6.7107 22.891-3.5413 3.0042-9.1856 1.7477-13.829 1.6877-4.8747-.06297-14.467-2.1462-14.467-2.1462z" fill="#1d1d1d"/>
  <path d="m169.12 95.918c-47.282-7.2287-87.476-20.882-104.5-55.532" fill="none"/>
 </g>
</svg>
