<?xml version="1.0" encoding="iso-8859-1"?>
<!-- Generator: Adobe Illustrator 19.0.0, SVG Export Plug-In . SVG Version: 6.00 Build 0)  -->
<svg version="1.1" id="Layer_1" xmlns="http://www.w3.org/2000/svg" xmlns:xlink="http://www.w3.org/1999/xlink" x="0px" y="0px"
	 viewBox="0 0 512 512" style="enable-background:new 0 0 512 512;" xml:space="preserve">
<g>
	<g>
		<polygon style="fill:#F0C419;" points="17.067,285.867 88.644,285.867 17.067,71.151 		"/>
		<polygon style="fill:#F0C419;" points="423.358,285.867 494.936,285.867 494.936,71.151 		"/>
	</g>
	<g>
		<path style="fill:#8E6F17;" d="M486.4,311.467H25.6c-9.429,0-17.067-7.637-17.067-17.067c0-9.429,7.637-17.067,17.067-17.067
			h460.8c9.429,0,17.067,7.637,17.067,17.067C503.467,303.829,495.829,311.467,486.4,311.467"/>
		<path style="fill:#8E6F17;" d="M486.4,448H25.6c-9.429,0-17.067-7.637-17.067-17.067s7.637-17.067,17.067-17.067h460.8
			c9.429,0,17.067,7.637,17.067,17.067S495.829,448,486.4,448"/>
	</g>
	<polygon style="fill:#F0C419;" points="34.133,413.867 477.867,413.867 477.867,311.467 34.133,311.467 	"/>
	<g>
		<path style="fill:#BA941C;" d="M221.867,371.2H153.6c-4.719,0-8.533-3.823-8.533-8.533c0-4.71,3.814-8.533,8.533-8.533h68.267
			c4.719,0,8.533,3.823,8.533,8.533C230.4,367.377,226.586,371.2,221.867,371.2"/>
		<path style="fill:#BA941C;" d="M358.4,371.2h-68.267c-4.719,0-8.533-3.823-8.533-8.533c0-4.71,3.814-8.533,8.533-8.533H358.4
			c4.719,0,8.533,3.823,8.533,8.533C366.933,367.377,363.119,371.2,358.4,371.2"/>
		<path style="fill:#BA941C;" d="M264.533,362.667c0,4.71-3.823,8.533-8.533,8.533c-4.71,0-8.533-3.823-8.533-8.533
			c0-4.71,3.823-8.533,8.533-8.533C260.71,354.133,264.533,357.956,264.533,362.667"/>
		<path style="fill:#BA941C;" d="M443.733,371.2h-17.067c-4.719,0-8.533-3.823-8.533-8.533c0-4.71,3.814-8.533,8.533-8.533h17.067
			c4.719,0,8.533,3.823,8.533,8.533C452.267,367.377,448.452,371.2,443.733,371.2"/>
		<path style="fill:#BA941C;" d="M401.067,362.667c0,4.71-3.823,8.533-8.533,8.533S384,367.377,384,362.667
			c0-4.71,3.823-8.533,8.533-8.533S401.067,357.956,401.067,362.667"/>
		<path style="fill:#BA941C;" d="M85.333,371.2H68.267c-4.719,0-8.533-3.823-8.533-8.533c0-4.71,3.814-8.533,8.533-8.533h17.067
			c4.719,0,8.533,3.823,8.533,8.533C93.867,367.377,90.052,371.2,85.333,371.2"/>
		<path style="fill:#BA941C;" d="M110.933,362.667c0-4.71,3.823-8.533,8.533-8.533c4.71,0,8.533,3.823,8.533,8.533
			c0,4.71-3.823,8.533-8.533,8.533C114.756,371.2,110.933,367.377,110.933,362.667"/>
	</g>
	<polygon style="fill:#F0C419;" points="315.733,277.333 196.267,277.333 256,123.733 	"/>
	<g>
		<polygon style="fill:#BA941C;" points="435.2,277.333 315.733,277.333 375.467,123.733 		"/>
		<polygon style="fill:#BA941C;" points="196.267,277.333 76.8,277.333 136.533,123.733 		"/>
	</g>
	<path style="fill:#F0C419;" d="M136.533,251.733c-4.719,0-8.533-3.823-8.533-8.533v-34.133c0-4.71,3.814-8.533,8.533-8.533
		s8.533,3.823,8.533,8.533V243.2C145.067,247.91,141.252,251.733,136.533,251.733"/>
	<path style="fill:#BA941C;" d="M256,251.733c-4.719,0-8.533-3.823-8.533-8.533v-34.133c0-4.71,3.814-8.533,8.533-8.533
		c4.719,0,8.533,3.823,8.533,8.533V243.2C264.533,247.91,260.719,251.733,256,251.733"/>
	<g>
		<path style="fill:#F0C419;" d="M375.467,251.733c-4.719,0-8.533-3.823-8.533-8.533v-34.133c0-4.71,3.814-8.533,8.533-8.533
			c4.719,0,8.533,3.823,8.533,8.533V243.2C384,247.91,380.186,251.733,375.467,251.733"/>
		<path style="fill:#F0C419;" d="M25.6,140.8c-4.719,0-8.533-3.823-8.533-8.533V72.533c0-4.71,3.814-8.533,8.533-8.533
			s8.533,3.823,8.533,8.533v59.733C34.133,136.977,30.319,140.8,25.6,140.8"/>
		<path style="fill:#F0C419;" d="M42.667,106.667H8.533c-4.719,0-8.533-3.823-8.533-8.533S3.814,89.6,8.533,89.6h34.133
			c4.719,0,8.533,3.823,8.533,8.533S47.386,106.667,42.667,106.667"/>
	</g>
	<g>
		<path style="fill:#BA941C;" d="M136.533,157.867c-4.719,0-8.533-3.823-8.533-8.533v-76.8c0-4.71,3.814-8.533,8.533-8.533
			s8.533,3.823,8.533,8.533v76.8C145.067,154.044,141.252,157.867,136.533,157.867"/>
		<path style="fill:#BA941C;" d="M153.6,106.667h-34.133c-4.719,0-8.533-3.823-8.533-8.533s3.814-8.533,8.533-8.533H153.6
			c4.719,0,8.533,3.823,8.533,8.533S158.319,106.667,153.6,106.667"/>
	</g>
	<g>
		<path style="fill:#F0C419;" d="M256,166.4c-4.719,0-8.533-3.823-8.533-8.533V72.533c0-4.71,3.814-8.533,8.533-8.533
			c4.719,0,8.533,3.823,8.533,8.533v85.333C264.533,162.577,260.719,166.4,256,166.4"/>
		<path style="fill:#F0C419;" d="M273.067,106.667h-34.133c-4.719,0-8.533-3.823-8.533-8.533s3.814-8.533,8.533-8.533h34.133
			c4.719,0,8.533,3.823,8.533,8.533S277.786,106.667,273.067,106.667"/>
	</g>
	<g>
		<path style="fill:#BA941C;" d="M375.467,166.4c-4.719,0-8.533-3.823-8.533-8.533V72.533c0-4.71,3.814-8.533,8.533-8.533
			c4.719,0,8.533,3.823,8.533,8.533v85.333C384,162.577,380.186,166.4,375.467,166.4"/>
		<path style="fill:#BA941C;" d="M392.533,106.667H358.4c-4.719,0-8.533-3.823-8.533-8.533s3.814-8.533,8.533-8.533h34.133
			c4.719,0,8.533,3.823,8.533,8.533S397.252,106.667,392.533,106.667"/>
	</g>
	<g>
		<path style="fill:#F0C419;" d="M486.4,140.8c-4.719,0-8.533-3.823-8.533-8.533V72.533c0-4.71,3.814-8.533,8.533-8.533
			s8.533,3.823,8.533,8.533v59.733C494.933,136.977,491.119,140.8,486.4,140.8"/>
		<path style="fill:#F0C419;" d="M503.467,106.667h-34.133c-4.719,0-8.533-3.823-8.533-8.533s3.814-8.533,8.533-8.533h34.133
			c4.719,0,8.533,3.823,8.533,8.533S508.186,106.667,503.467,106.667"/>
	</g>
</g>
<g>
</g>
<g>
</g>
<g>
</g>
<g>
</g>
<g>
</g>
<g>
</g>
<g>
</g>
<g>
</g>
<g>
</g>
<g>
</g>
<g>
</g>
<g>
</g>
<g>
</g>
<g>
</g>
<g>
</g>
</svg>
